<svg width="38" height="38" viewBox="0 0 38 38" fill="none" xmlns="http://www.w3.org/2000/svg">
<path d="M18.6356 6.12574e-05C23.5781 6.13163e-05 28.3181 1.96345 31.8129 5.4583C35.3078 8.95315 37.2712 13.6932 37.2712 18.6357C37.2712 23.5781 35.3078 28.3182 31.8129 31.813C28.3181 35.3079 23.5781 37.2712 18.6356 37.2712C13.6931 37.2712 8.95309 35.3079 5.45824 31.813C1.96339 28.3182 1.63289e-07 23.5781 2.22227e-07 18.6357C2.81166e-07 13.6932 1.96339 8.95315 5.45824 5.4583C8.95309 1.96345 13.6931 6.11984e-05 18.6356 6.12574e-05V6.12574e-05ZM10.4825 17.4709C10.1736 17.4709 9.87736 17.5936 9.65894 17.8121C9.44051 18.0305 9.3178 18.3267 9.3178 18.6357C9.3178 18.9446 9.44051 19.2408 9.65894 19.4592C9.87736 19.6777 10.1736 19.8004 10.4825 19.8004L23.977 19.8004L18.9757 24.7994C18.757 25.0181 18.6341 25.3147 18.6341 25.624C18.6341 25.9333 18.757 26.2299 18.9757 26.4486C19.1944 26.6673 19.491 26.7902 19.8003 26.7902C20.1096 26.7902 20.4062 26.6673 20.6249 26.4486L27.6133 19.4603C27.7218 19.3521 27.8078 19.2236 27.8665 19.0821C27.9252 18.9405 27.9555 18.7889 27.9555 18.6357C27.9555 18.4824 27.9252 18.3308 27.8665 18.1893C27.8078 18.0477 27.7218 17.9192 27.6133 17.811L20.6249 10.8227C20.4062 10.604 20.1096 10.4811 19.8003 10.4811C19.491 10.4811 19.1944 10.604 18.9757 10.8227C18.757 11.0414 18.6341 11.338 18.6341 11.6473C18.6341 11.9566 18.757 12.2532 18.9757 12.4719L23.977 17.4709L10.4825 17.4709Z" fill="#FAFAFA"/>
</svg>
