<svg width="8" height="4" viewBox="0 0 8 4" fill="none" xmlns="http://www.w3.org/2000/svg">
<path d="M6.97334 0.0890399C6.92718 0.0319572 6.86521 -9.47999e-09 6.80069 -1.29025e-08C6.73616 -1.63249e-08 6.6742 0.0319572 6.62804 0.0890399L4.04395 3.27817L1.46037 0.0890396C1.41421 0.0319569 1.35225 -3.01889e-07 1.28772 -3.05311e-07C1.2232 -3.08734e-07 1.16123 0.0319569 1.11507 0.0890396C1.09256 0.116786 1.07467 0.14996 1.06245 0.186603C1.05024 0.223246 1.04395 0.262617 1.04395 0.30239C1.04395 0.342163 1.05024 0.381534 1.06245 0.418177C1.07467 0.454821 1.09256 0.487995 1.11507 0.515741L3.86354 3.9071C3.91181 3.96666 3.97654 4 4.04395 4C4.11135 4 4.17608 3.96666 4.22435 3.9071L6.97282 0.515741C6.99533 0.487995 7.01322 0.454821 7.02544 0.418178C7.03765 0.381534 7.04395 0.342164 7.04395 0.30239C7.04395 0.262617 7.03765 0.223247 7.02544 0.186603C7.01322 0.14996 6.99533 0.116786 6.97282 0.0890399L6.97334 0.0890399Z" fill="white"/>
</svg>
