<svg width="228" height="231" viewBox="0 0 228 231" fill="none" xmlns="http://www.w3.org/2000/svg">
<g filter="url(#filter0_ii_1790_473)">
<path fill-rule="evenodd" clip-rule="evenodd" d="M17.0103 87.8828C2.55344 113.648 3.13542 147.001 16.6979 174.962C6.11904 157.707 0 137.513 0 116.015C0 109.274 0.590178 102.669 1.72186 96.2508C2.18093 98.7762 3.04771 101.332 4.36349 103.919C5.34025 102.383 6.40145 100.654 7.53915 98.8008C10.8623 93.387 14.8382 86.9099 19.2689 81.0798C18.4376 83.3112 17.6837 85.5799 17.0103 87.8828ZM60.8708 30.5312C53.9697 34.7827 47.6227 39.8399 41.9614 45.5707C27.9468 54.0602 15.7418 63.239 8.45788 73.0282C21.4612 41.4081 48.38 16.9387 81.6241 7.18349L60.8708 30.5312ZM91.1672 18.1254C90.3283 18.3173 89.4934 18.5196 88.6626 18.7322C90.1557 17.6081 91.2277 16.8559 91.2277 16.8559C91.1838 17.1972 91.1651 17.6283 91.1672 18.1254ZM98.3996 16.7471C103.432 15.9775 108.587 15.5782 113.836 15.5782C169.569 15.5782 214.672 60.5884 214.672 116.015C214.672 171.712 170.305 217.25 114.84 217.25C113.824 217.25 112.812 217.235 111.803 217.205C120.505 220.95 130.555 223.906 142.085 225.687C131.958 228.311 122.333 229.781 113.231 230.239C113.766 230.246 114.303 230.25 114.84 230.25C177.71 230.25 227.672 178.665 227.672 116.015C227.672 53.3657 176.706 2.57817 113.836 2.57817C108.666 2.57817 103.576 2.92161 98.5892 3.58684C98.5115 7.48597 98.4307 12.314 98.3996 16.7471Z" fill="url(#paint0_radial_1790_473)"/>
</g>
<mask id="mask0_1790_473" style="mask-type:alpha" maskUnits="userSpaceOnUse" x="49" y="39" width="179" height="184">
<ellipse cx="138.824" cy="131.089" rx="88.8475" ry="91.2274" fill="url(#paint1_radial_1790_473)"/>
<ellipse cx="138.824" cy="131.089" rx="88.8475" ry="91.2274" fill="url(#paint2_linear_1790_473)"/>
</mask>
<g mask="url(#mask0_1790_473)">
<path fill-rule="evenodd" clip-rule="evenodd" d="M214.98 169.442C200.998 175.57 188.632 179.416 177.759 181.414H192.548C192.548 181.414 179.599 184.862 171.164 184.546C161.785 184.194 151.657 183.357 142.786 180.822C92.3832 166.418 107.059 89.1187 144.932 96.3366C145.232 96.3993 145.535 96.4633 145.842 96.528C146.062 96.5745 146.282 96.6211 146.501 96.6676C153.16 98.0808 159.351 99.3945 173.928 95.3913C174.792 95.154 176.902 90.235 176.902 90.235L94.2989 78.7324L18.2613 95.6723C-9.81687 142.842 96.0513 231.894 166.066 216.608C186.818 206.319 203.891 189.757 214.98 169.442Z" fill="url(#paint3_radial_1790_473)"/>
<path fill-rule="evenodd" clip-rule="evenodd" d="M214.98 169.442C200.998 175.57 188.632 179.416 177.759 181.414H192.548C192.548 181.414 179.599 184.862 171.164 184.546C161.785 184.194 151.657 183.357 142.786 180.822C92.3832 166.418 107.059 89.1187 144.932 96.3366C145.232 96.3993 145.535 96.4633 145.842 96.528C146.062 96.5745 146.282 96.6211 146.501 96.6676C153.16 98.0808 159.351 99.3945 173.928 95.3913C174.792 95.154 176.902 90.235 176.902 90.235L94.2989 78.7324L18.2613 95.6723C-9.81687 142.842 96.0513 231.894 166.066 216.608C186.818 206.319 203.891 189.757 214.98 169.442Z" fill="url(#paint4_linear_1790_473)"/>
</g>
<path fill-rule="evenodd" clip-rule="evenodd" d="M195.148 195.72C194.851 195.782 194.549 195.845 194.242 195.909C169.894 200.992 114.46 212.565 91.2118 162.113C87.7172 146.114 93.867 126.865 93.867 126.865L87.7559 138.813C88.8875 125.273 96.1316 112.129 112.783 101.31C122.783 94.8128 133.706 94.9275 145.478 96.8325C152.85 98.0255 170.928 98.5828 176.108 91.8224C177.212 90.3824 176.902 88.4509 176.902 88.4509L93.8658 76.75L24.6192 93.4523C4.81202 127.025 36.4713 192.943 82.0491 224.64C92.4121 227.773 103.406 229.457 114.794 229.457C146.299 229.156 174.719 216.334 195.148 195.72Z" fill="url(#paint5_radial_1790_473)"/>
<path fill-rule="evenodd" clip-rule="evenodd" d="M195.148 195.72C194.851 195.782 194.549 195.845 194.242 195.909C169.894 200.992 114.46 212.565 91.2118 162.113C87.7172 146.114 93.867 126.865 93.867 126.865L87.7559 138.813C88.8875 125.273 96.1316 112.129 112.783 101.31C122.783 94.8128 133.706 94.9275 145.478 96.8325C152.85 98.0255 170.928 98.5828 176.108 91.8224C177.212 90.3824 176.902 88.4509 176.902 88.4509L93.8658 76.75L24.6192 93.4523C4.81202 127.025 36.4713 192.943 82.0491 224.64C92.4121 227.773 103.406 229.457 114.794 229.457C146.299 229.156 174.719 216.334 195.148 195.72Z" fill="url(#paint6_linear_1790_473)"/>
<path fill-rule="evenodd" clip-rule="evenodd" d="M178.272 87.4969C178.272 87.4969 179.01 90.4708 178.272 92.1187C174.256 101.092 149.07 97.7522 142.084 96.282L142.082 96.2816C140.74 95.9991 139.357 95.7082 137.926 95.42L127.343 94.4296H106.839C106.839 94.4296 115.107 94.4296 119.406 92.1187C123.705 89.8078 119.406 89.4777 119.406 89.4777C107.738 87.238 100.331 85.9706 88.9809 89.4777C71.1664 94.982 48.0214 118.889 46.6503 138.006C50.9584 131.15 56.1219 124.463 62.855 119.849C62.855 119.849 54.804 133.946 52.9338 143.949C50.2999 158.036 51.4697 178.738 60.54 190.497C63.1593 193.892 67.1542 198.09 67.1542 198.09C63.5164 186.865 63.5164 179.602 65.1699 169.038C71.0203 189.379 93.2971 217.954 142.084 225.49C32.6392 253.85 -18.286 147.369 17.8787 86.1764C23.8183 76.1263 39.044 65.0483 39.044 65.0483C24.8462 67.8068 14.9472 77.4495 7.29604 89.4777C15.7965 71.9762 28.2227 55.9167 46.6503 46.3367C56.4573 41.2383 57.1157 37.6477 57.1157 37.6477L96.1243 0C96.1243 0 95.0762 28.8226 95.9257 30.0548C97.7327 32.6756 103.469 34.1183 110.38 35.8565C118.872 37.9924 129.138 40.5744 136.068 46.3367C142.894 52.0119 147.196 55.5885 150.823 63.7278C152.468 67.4171 153.8 73.6316 153.8 73.6316L170.996 83.8655L178.272 87.4969ZM133.432 65.0483C135.914 65.0483 137.926 67.0603 137.926 69.5424V69.6701L124.367 66.3688C126.995 65.4942 129.747 65.0483 132.518 65.0483H133.432ZM80.3192 25.98C82.8594 22.53 92.8134 10.511 92.8134 10.511C92.4168 13.588 92.4961 30.1125 92.8134 30.343C92.9861 30.4685 93.9107 31.4245 94.916 32.4641L94.9163 32.4645C96.1245 33.7138 97.4492 35.0837 97.726 35.2777C97.5217 35.2229 96.8178 35.0797 96.1243 34.9386L96.1228 34.9384C95.7061 34.8536 95.2933 34.7696 94.9949 34.7061C94.0641 34.5078 88.847 33.9128 88.252 33.9128C87.6571 33.9128 84.4839 34.7061 84.4839 34.9044C84.4839 35.063 85.0128 36.7994 85.2772 37.6477L81.8355 35.5313C80.3949 34.6454 79.4901 33.092 79.5312 31.4013C79.5813 29.3432 79.7588 26.7411 80.3192 25.98ZM106.696 30.2108C106.696 30.2108 111.075 26.2373 113.677 24.129C116.19 22.093 119.811 19.6337 119.811 19.6337C119.75 20.0568 121.901 28.0954 122.985 32.0618L125.735 35.4994L121.081 34.4416L120.658 33.6484L122.561 33.9128C122.399 33.536 122.184 33.4642 121.952 33.3871C121.48 33.2298 120.942 33.0506 120.658 30.2108C120.646 30.0899 120.589 29.7648 120.509 29.299L120.509 29.2983L120.509 29.2981C120.325 28.2338 120.014 26.4353 119.811 24.6578C118.99 25.631 118.074 26.4957 117.237 27.285L117.237 27.285C114.435 29.9271 112.53 31.7238 118.119 33.9128C114.54 32.5111 106.696 30.2108 106.696 30.2108Z" fill="url(#paint7_radial_1790_473)"/>
<path fill-rule="evenodd" clip-rule="evenodd" d="M178.272 87.4969C178.272 87.4969 179.01 90.4708 178.272 92.1187C174.256 101.092 149.07 97.7522 142.084 96.282L142.082 96.2816C140.74 95.9991 139.357 95.7082 137.926 95.42L127.343 94.4296H106.839C106.839 94.4296 115.107 94.4296 119.406 92.1187C123.705 89.8078 119.406 89.4777 119.406 89.4777C107.738 87.238 100.331 85.9706 88.9809 89.4777C71.1664 94.982 48.0214 118.889 46.6503 138.006C50.9584 131.15 56.1219 124.463 62.855 119.849C62.855 119.849 54.804 133.946 52.9338 143.949C50.2999 158.036 51.4697 178.738 60.54 190.497C63.1593 193.892 67.1542 198.09 67.1542 198.09C63.5164 186.865 63.5164 179.602 65.1699 169.038C71.0203 189.379 93.2971 217.954 142.084 225.49C32.6392 253.85 -18.286 147.369 17.8787 86.1764C23.8183 76.1263 39.044 65.0483 39.044 65.0483C24.8462 67.8068 14.9472 77.4495 7.29604 89.4777C15.7965 71.9762 28.2227 55.9167 46.6503 46.3367C56.4573 41.2383 57.1157 37.6477 57.1157 37.6477L96.1243 0C96.1243 0 95.0762 28.8226 95.9257 30.0548C97.7327 32.6756 103.469 34.1183 110.38 35.8565C118.872 37.9924 129.138 40.5744 136.068 46.3367C142.894 52.0119 147.196 55.5885 150.823 63.7278C152.468 67.4171 153.8 73.6316 153.8 73.6316L170.996 83.8655L178.272 87.4969ZM133.432 65.0483C135.914 65.0483 137.926 67.0603 137.926 69.5424V69.6701L124.367 66.3688C126.995 65.4942 129.747 65.0483 132.518 65.0483H133.432ZM80.3192 25.98C82.8594 22.53 92.8134 10.511 92.8134 10.511C92.4168 13.588 92.4961 30.1125 92.8134 30.343C92.9861 30.4685 93.9107 31.4245 94.916 32.4641L94.9163 32.4645C96.1245 33.7138 97.4492 35.0837 97.726 35.2777C97.5217 35.2229 96.8178 35.0797 96.1243 34.9386L96.1228 34.9384C95.7061 34.8536 95.2933 34.7696 94.9949 34.7061C94.0641 34.5078 88.847 33.9128 88.252 33.9128C87.6571 33.9128 84.4839 34.7061 84.4839 34.9044C84.4839 35.063 85.0128 36.7994 85.2772 37.6477L81.8355 35.5313C80.3949 34.6454 79.4901 33.092 79.5312 31.4013C79.5813 29.3432 79.7588 26.7411 80.3192 25.98ZM106.696 30.2108C106.696 30.2108 111.075 26.2373 113.677 24.129C116.19 22.093 119.811 19.6337 119.811 19.6337C119.75 20.0568 121.901 28.0954 122.985 32.0618L125.735 35.4994L121.081 34.4416L120.658 33.6484L122.561 33.9128C122.399 33.536 122.184 33.4642 121.952 33.3871C121.48 33.2298 120.942 33.0506 120.658 30.2108C120.646 30.0899 120.589 29.7648 120.509 29.299L120.509 29.2983L120.509 29.2981C120.325 28.2338 120.014 26.4353 119.811 24.6578C118.99 25.631 118.074 26.4957 117.237 27.285L117.237 27.285C114.435 29.9271 112.53 31.7238 118.119 33.9128C114.54 32.5111 106.696 30.2108 106.696 30.2108Z" fill="url(#paint8_linear_1790_473)"/>
<defs>
<filter id="filter0_ii_1790_473" x="0" y="2.57812" width="227.672" height="227.672" filterUnits="userSpaceOnUse" color-interpolation-filters="sRGB">
<feFlood flood-opacity="0" result="BackgroundImageFix"/>
<feBlend mode="normal" in="SourceGraphic" in2="BackgroundImageFix" result="shape"/>
<feColorMatrix in="SourceAlpha" type="matrix" values="0 0 0 0 0 0 0 0 0 0 0 0 0 0 0 0 0 0 127 0" result="hardAlpha"/>
<feMorphology radius="42" operator="dilate" in="SourceAlpha" result="effect1_innerShadow_1790_473"/>
<feOffset dx="-1"/>
<feGaussianBlur stdDeviation="2.5"/>
<feComposite in2="hardAlpha" operator="arithmetic" k2="-1" k3="1"/>
<feColorMatrix type="matrix" values="0 0 0 0 0.584314 0 0 0 0 0.168627 0 0 0 0 0.145098 0 0 0 0.1 0"/>
<feBlend mode="normal" in2="shape" result="effect1_innerShadow_1790_473"/>
<feColorMatrix in="SourceAlpha" type="matrix" values="0 0 0 0 0 0 0 0 0 0 0 0 0 0 0 0 0 0 127 0" result="hardAlpha"/>
<feMorphology radius="22" operator="dilate" in="SourceAlpha" result="effect2_innerShadow_1790_473"/>
<feOffset dx="2"/>
<feGaussianBlur stdDeviation="1.5"/>
<feComposite in2="hardAlpha" operator="arithmetic" k2="-1" k3="1"/>
<feColorMatrix type="matrix" values="0 0 0 0 0.336458 0 0 0 0 0.6555 0 0 0 0 0.95 0 0 0 0.05 0"/>
<feBlend mode="normal" in2="effect1_innerShadow_1790_473" result="effect2_innerShadow_1790_473"/>
</filter>
<radialGradient id="paint0_radial_1790_473" cx="0" cy="0" r="1" gradientUnits="userSpaceOnUse" gradientTransform="translate(205.46 119.984) rotate(170.005) scale(196.543)">
<stop stop-color="#2A3037"/>
<stop offset="1" stop-color="#282E34"/>
</radialGradient>
<radialGradient id="paint1_radial_1790_473" cx="0" cy="0" r="1" gradientUnits="userSpaceOnUse" gradientTransform="translate(203.873 67.1977) rotate(125.716) scale(187.528 142.617)">
<stop stop-color="#8898A7"/>
<stop offset="1" stop-color="#21262B"/>
</radialGradient>
<linearGradient id="paint2_linear_1790_473" x1="304.144" y1="50.9866" x2="150.372" y2="166.115" gradientUnits="userSpaceOnUse">
<stop stop-color="#341E32"/>
<stop offset="1" stop-opacity="0"/>
</linearGradient>
<radialGradient id="paint3_radial_1790_473" cx="0" cy="0" r="1" gradientUnits="userSpaceOnUse" gradientTransform="translate(188.013 99.6507) rotate(136.794) scale(170.183 136.265)">
<stop stop-color="#566675"/>
<stop offset="1" stop-color="#21262B"/>
</radialGradient>
<linearGradient id="paint4_linear_1790_473" x1="301.633" y1="87.2457" x2="179.65" y2="222.482" gradientUnits="userSpaceOnUse">
<stop stop-color="#341E32"/>
<stop offset="1" stop-opacity="0"/>
</linearGradient>
<radialGradient id="paint5_radial_1790_473" cx="0" cy="0" r="1" gradientUnits="userSpaceOnUse" gradientTransform="translate(171.503 99.6295) rotate(130.481) scale(167.538 132.742)">
<stop stop-color="#6B7B8A"/>
<stop offset="1" stop-color="#21262B"/>
</radialGradient>
<linearGradient id="paint6_linear_1790_473" x1="271.126" y1="86.0614" x2="137.924" y2="204.445" gradientUnits="userSpaceOnUse">
<stop stop-color="#341E32"/>
<stop offset="1" stop-opacity="0"/>
</linearGradient>
<radialGradient id="paint7_radial_1790_473" cx="0" cy="0" r="1" gradientUnits="userSpaceOnUse" gradientTransform="translate(155.53 34.4897) rotate(118.917) scale(219.463 149.045)">
<stop stop-color="#8898A7"/>
<stop offset="1" stop-color="#21262B"/>
</radialGradient>
<linearGradient id="paint8_linear_1790_473" x1="252.731" y1="14.0365" x2="77.9473" y2="114.579" gradientUnits="userSpaceOnUse">
<stop stop-color="#341E32"/>
<stop offset="1" stop-opacity="0"/>
</linearGradient>
</defs>
</svg>
