<svg width="22" height="18" viewBox="0 0 22 18" fill="none" xmlns="http://www.w3.org/2000/svg">
<path d="M19.8782 17.7857H5.23111C4.08027 17.7857 3.13867 16.8441 3.13867 15.6933C6.65998 15.6933 9.96173 15.6933 11.1126 15.6933H19.8782V3.13866C21.029 3.13866 21.9706 4.08025 21.9706 5.2311V15.6933C21.9706 16.8441 21.029 17.7857 19.8782 17.7857Z" fill="white" fill-opacity="0.4"/>
<path d="M16.7395 14.6471H2.09244C0.941598 14.6471 0 13.7055 0 12.5546V2.09244C0 0.941598 0.941598 0 2.09244 0H16.7395C17.8904 0 18.832 0.941598 18.832 2.09244V12.5546C18.832 13.7055 17.8904 14.6471 16.7395 14.6471Z" fill="white" fill-opacity="0.4"/>
</svg>
