<svg width="30" height="39" viewBox="0 0 30 39" fill="none" xmlns="http://www.w3.org/2000/svg">
<path fill-rule="evenodd" clip-rule="evenodd" d="M20.352 8.98391C20.2673 7.70033 19.7343 6.48733 18.8461 5.55681L13.542 0L15.9116 8.59443C16.1145 9.33024 16.6699 9.91703 17.3935 10.16C18.0718 10.3877 18.6692 10.8081 19.1126 11.3698L19.3613 11.6849C19.6295 12.0246 19.8385 12.4072 19.9795 12.8165L20.2102 13.4864L20.3057 12.4581C20.4129 11.3031 20.4284 10.1414 20.352 8.98391ZM8.62105 14.4965C9.16911 13.8986 9.23635 13.3618 9.30704 12.7975C9.36855 12.3066 9.43266 11.7948 9.81842 11.2037C9.87046 11.124 9.91935 11.0476 9.96643 10.9739L9.9665 10.9738C10.4465 10.2232 10.7386 9.7663 12.272 9.11753C13.9558 8.40508 14.7683 8.56312 15.0975 9.11754C15.4268 9.67196 18.4673 12.2621 18.4673 12.2621L18.4675 12.263C19.2582 13.0597 19.5131 14.8897 19.3008 15.8064C19.0425 15.5947 18.8757 15.2619 18.6989 14.9091C18.1283 13.7708 17.4539 12.4254 13.2701 14.2786C11.5089 16.3279 8.22333 16.8801 6.73047 16.4025C6.73047 16.4025 8.54406 18.1054 11.7871 17.8743C13.8473 17.7274 15.6475 16.7428 16.98 15.7365C16.4391 16.3439 16.0173 16.8281 16.1206 16.7469C16.1874 16.6945 16.1663 16.7329 16.061 16.8289C15.0519 20.0712 14.5316 23.4506 15.4901 26.8077C9.41771 24.4344 5.18416 25.5783 0.0205078 29.459C0.846735 28.686 1.59111 27.9539 2.29838 27.2583L2.29847 27.2583L2.29848 27.2582L2.29849 27.2582C4.81009 24.7881 6.85379 22.7782 10.4333 21.0293L13.5978 18.346L14.3284 17.883C13.9967 18.0267 13.6218 18.1636 13.2053 18.2795C11.2063 18.8359 9.9042 18.7858 7.89194 18.2795C6.35714 17.8934 5.6123 16.0294 5.6123 16.0294C5.6123 16.0294 7.65152 15.5543 8.62105 14.4965ZM12.5129 8.38546C12.3121 8.4435 12.174 8.62728 12.174 8.83624L11.1209 9.18692C10.2658 9.60159 9.24333 9.14698 8.97838 8.23436L7.60899 3.51758L13.5605 8.08254L12.5129 8.38546ZM21.0964 16.8702C21.2988 17.1587 21.515 17.5071 21.7126 17.9074C22.3273 19.1529 22.3273 20.465 22.3273 20.465L20.8069 26.8455C21.0336 25.8773 22.1651 20.7909 21.2696 19.3854C21.194 19.2668 21.1214 19.1535 21.0518 19.0449L21.0517 19.0447C20.1286 17.6042 19.7467 17.0083 20.1885 16.1248V13.9092L21.0964 16.8702ZM20.7688 27.0053C20.7688 27.0053 20.7827 26.9489 20.8069 26.8455L20.7688 27.0053ZM7.47632 37.6523C15.9138 39.1184 21.3626 36.5562 22.7579 35.7872L22.7601 35.7885C22.7601 35.7885 30.3054 32.925 29.0975 26.8416C28.8976 25.8348 27.8413 25.1595 26.7084 24.4351C25.327 23.5519 23.8316 22.5957 23.6355 20.877C23.6355 20.877 22.1293 24.074 22.7601 26.4687C22.7748 26.5249 22.8375 26.602 22.915 26.6973C23.197 27.0442 23.6753 27.6326 22.7601 28.3333C20.8819 29.771 17.5243 29.6803 14.7909 29.2797C12.6363 28.0121 10.3732 26.8048 8.20136 27.2858C4.31433 28.1467 2.25246 29.8971 0.740503 31.1807L0.737948 31.1829C0.671563 31.2392 0.606236 31.2947 0.541861 31.3491C-0.988892 32.6436 0.541863 36.4474 7.47632 37.6523ZM23.4528 23.4675C23.4155 24.4812 23.5963 25.4911 23.9832 26.4289C24.3453 27.3068 24.5438 28.2688 24.3156 29.1907C23.6771 31.7707 21.8299 32.7454 18.6869 34.4038L18.6862 34.4041C18.1015 34.7127 17.4719 35.0449 16.7969 35.4155C17.7818 35.4155 18.7533 35.2115 19.6926 34.9151C20.307 34.7212 20.9027 34.5605 21.4791 34.4051C22.6541 34.0882 23.7491 33.7929 24.7603 33.2813C25.9077 32.7008 26.8387 31.7436 27.4642 30.6201C28.3492 29.03 27.9468 28.1261 27.0428 26.7657L24.7628 24.164C23.9157 23.5559 23.5071 21.9951 23.5071 21.9951L23.4528 23.4675Z" fill="white"/>
</svg>
