<svg width="33" height="34" viewBox="0 0 33 34" fill="none" xmlns="http://www.w3.org/2000/svg">
<path fill-rule="evenodd" clip-rule="evenodd" d="M30.2856 17.12C30.2856 13.2449 28.8193 9.52852 26.2091 6.78841C23.599 4.04831 20.0588 2.50893 16.3675 2.50893C12.6762 2.50893 9.13607 4.04831 6.52592 6.78841C3.91576 9.52852 2.44939 13.2449 2.44939 17.12C2.44939 20.9951 3.91576 24.7115 6.52592 27.4516C9.13607 30.1917 12.6762 31.7311 16.3675 31.7311C20.0588 31.7311 23.5989 30.1917 26.2091 27.4516C28.8193 24.7115 30.2856 20.9951 30.2856 17.12ZM0.461091 17.12C0.461092 12.6913 2.13694 8.44402 5.11997 5.31247C8.10301 2.18092 12.1489 0.421633 16.3675 0.421633C20.5862 0.421634 24.632 2.18092 27.615 5.31247C30.5981 8.44402 32.2739 12.6913 32.2739 17.12C32.2739 21.5487 30.5981 25.796 27.615 28.9275C24.632 32.0591 20.5862 33.8184 16.3675 33.8184C12.1489 33.8184 8.103 32.0591 5.11997 28.9275C2.13694 25.796 0.461091 21.5487 0.461091 17.12ZM15.3734 24.4255C15.3734 24.7023 15.4781 24.9678 15.6645 25.1635C15.851 25.3592 16.1038 25.4692 16.3675 25.4692C16.6312 25.4692 16.884 25.3592 17.0705 25.1635C17.2569 24.9678 17.3617 24.7023 17.3617 24.4255L17.3617 12.3338L21.6286 16.8153C21.8152 17.0112 22.0684 17.1213 22.3324 17.1213C22.5964 17.1213 22.8496 17.0112 23.0363 16.8153C23.223 16.6193 23.3278 16.3535 23.3278 16.0763C23.3278 15.7992 23.223 15.5334 23.0363 15.3374L17.0714 9.07556C16.979 8.97837 16.8693 8.90126 16.7485 8.84864C16.6278 8.79603 16.4983 8.76895 16.3675 8.76895C16.2367 8.76895 16.1073 8.79603 15.9865 8.84864C15.8657 8.90126 15.756 8.97837 15.6637 9.07556L9.69874 15.3374C9.51207 15.5334 9.4072 15.7992 9.4072 16.0763C9.4072 16.3535 9.51207 16.6193 9.69874 16.8153C9.88542 17.0112 10.1386 17.1213 10.4026 17.1213C10.6666 17.1213 10.9198 17.0112 11.1065 16.8153L15.3734 12.3338L15.3734 24.4255Z" fill="#F24E1E"/>
</svg>
