<svg width="50" height="30" viewBox="0 0 50 30" fill="none" xmlns="http://www.w3.org/2000/svg">
<path d="M48.8676 2.06298C48.3445 3.74764 47.5793 5.34596 46.5964 6.80701L46.636 6.74401C45.7025 8.31206 44.5878 10.1237 43.2918 12.179C42.1805 13.8016 41.5922 14.6416 41.5269 14.699C41.2299 15.0739 41.0378 15.522 40.9706 15.9969L40.9685 16.0116C41.0216 16.4395 41.2187 16.8361 41.5269 17.1351L42.3604 18.0717C46.8194 22.6905 49.3274 25.8742 49.8844 27.6228C49.99 27.91 50.024 28.2191 49.9833 28.5226C49.9426 28.8262 49.8285 29.1151 49.651 29.3638L49.6552 29.3575C49.4454 29.5755 49.1897 29.7433 48.907 29.8484C48.6242 29.9534 48.3216 29.9931 48.0216 29.9644H48.03H42.5375C41.8353 29.9644 41.1894 29.7166 40.683 29.305L40.6893 29.3091C39.9664 28.7118 39.3028 28.045 38.7078 27.3183L38.689 27.2931C37.7291 26.1997 36.8776 25.2791 36.1345 24.5315C33.6591 22.1598 31.8324 20.974 30.6545 20.974C30.2743 20.9397 29.8941 21.0399 29.5793 21.2575L29.5856 21.2533C29.4503 21.4242 29.351 21.6211 29.2937 21.832C29.2364 22.0428 29.2223 22.2632 29.2522 22.4798V22.4714C29.1712 23.4512 29.1448 24.4349 29.173 25.4177V25.382V27.816C29.2322 28.1067 29.2119 28.4082 29.1143 28.6882C29.0167 28.9682 28.8454 29.2162 28.6188 29.4058L28.6167 29.4079C27.5615 29.8883 26.3999 30.0817 25.2475 29.9686L25.2745 29.9707C22.1203 29.9161 19.0406 28.9955 16.367 27.3078L16.4399 27.3498C13.3569 25.4765 10.7144 22.9507 8.69503 19.9471L8.63877 19.8589C6.67856 17.2243 4.9555 14.4187 3.4901 11.4754L3.34424 11.152C2.36776 9.24611 1.50974 7.28086 0.775114 5.26767L0.650095 4.87916C0.309494 3.83404 0.09268 2.752 0.00416728 1.65557L0 1.60307C0 0.541837 0.619535 0.0112226 1.85861 0.0112226H7.33858C7.89259 -0.0325106 8.44255 0.136253 8.87839 0.483736L8.87422 0.479536C9.29095 0.939449 9.59933 1.50436 9.75143 2.13438L9.75768 2.15958C10.663 4.77272 11.7686 7.31094 13.0644 9.7513L12.9248 9.46359C13.8614 11.381 14.9948 13.1942 16.3066 14.8733L16.2586 14.8082C17.3699 16.1831 18.2367 16.8705 18.859 16.8705L18.9257 16.8726C19.0722 16.8728 19.2162 16.8341 19.3431 16.7604C19.4701 16.6866 19.5755 16.5805 19.6487 16.4526L19.6508 16.4484C19.8503 15.922 19.9293 15.3571 19.8821 14.7956V14.8082V6.66211C19.8431 5.7385 19.6162 4.83282 19.2153 4.00133L19.232 4.04124C18.9889 3.5128 18.6733 3.02146 18.2943 2.5817L18.3006 2.59009C17.9512 2.23852 17.7239 1.78255 17.6526 1.29016L17.6505 1.27756C17.6505 0.920548 17.813 0.599239 18.0672 0.389233L18.0693 0.387133C18.3309 0.145665 18.6731 0.0122237 19.0278 0.0133225H27.6832C27.9005 -0.012234 28.1207 0.0169849 28.3239 0.0983572C28.5272 0.17973 28.7073 0.310709 28.848 0.479536L28.8501 0.481636C29.1132 0.971737 29.2284 1.52873 29.1814 2.08398V2.07348V12.9371C29.1482 13.3656 29.2471 13.7939 29.4647 14.1635L29.4606 14.1551C29.5369 14.2701 29.6401 14.3643 29.7611 14.4295C29.8821 14.4947 30.0172 14.5288 30.1544 14.5289H30.1565C30.5079 14.5059 30.8468 14.3884 31.1379 14.1887L31.1316 14.1929C31.6984 13.8002 32.186 13.3529 32.6089 12.8468L32.6173 12.8363C33.9046 11.3683 35.0587 9.78691 36.0657 8.11115L36.147 7.96415C36.8637 6.76711 37.6389 5.29287 38.341 3.77873L38.4702 3.47002L39.3995 1.59677C39.5632 1.11242 39.8788 0.694918 40.2987 0.407354C40.7186 0.11979 41.2199 -0.0222067 41.727 0.00282199H41.7207H47.2028C48.6835 0.00282199 49.2392 0.689541 48.8697 2.06298H48.8676Z" fill="#DC6041"/>
</svg>
