<svg width="39" height="39" viewBox="0 0 39 39" fill="none" xmlns="http://www.w3.org/2000/svg">
<path d="M35.4806 9.39491C29.8406 0.699908 18.3256 -1.88509 9.39558 3.51991C0.700581 8.92491 -2.11942 20.6749 3.52058 29.3699L3.99058 30.0749L2.11058 37.1249L9.16058 35.2449L9.86558 35.7149C12.9206 37.3599 16.2106 38.2999 19.5006 38.2999C23.0256 38.2999 26.5506 37.3599 29.6056 35.4799C38.3006 29.8399 40.8856 18.3249 35.4806 9.39491ZM30.5456 27.4899C29.6056 28.8999 28.4306 29.8399 26.7856 30.0749C25.8456 30.0749 24.6706 30.5449 19.9706 28.6649C15.9756 26.7849 12.6856 23.7299 10.3356 20.2049C8.92558 18.5599 8.22058 16.4449 7.98558 14.3299C7.98558 12.4499 8.69058 10.8049 9.86558 9.62991C10.3356 9.15991 10.8056 8.92491 11.2756 8.92491H12.4506C12.9206 8.92491 13.3906 8.92491 13.6256 9.86491C14.0956 11.0399 15.2706 13.8599 15.2706 14.0949C15.5056 14.3299 15.5056 14.7999 15.2706 15.0349C15.5056 15.5049 15.2706 15.9749 15.0356 16.2099C14.8006 16.4449 14.5656 16.9149 14.3306 17.1499C13.8606 17.3849 13.6256 17.8549 13.8606 18.3249C14.8006 19.7349 15.9756 21.1449 17.1506 22.3199C18.5606 23.4949 19.9706 24.4349 21.6156 25.1399C22.0856 25.3749 22.5556 25.3749 22.7906 24.9049C23.0256 24.4349 24.2006 23.2599 24.6706 22.7899C25.1406 22.3199 25.3756 22.3199 25.8456 22.5549L29.6056 24.4349C30.0756 24.6699 30.5456 24.9049 30.7806 25.1399C31.0156 25.8449 31.0156 26.7849 30.5456 27.4899Z" fill="#DC6041"/>
</svg>
