<svg width="50" height="50" viewBox="0 0 50 50" fill="none" xmlns="http://www.w3.org/2000/svg">
<circle r="25" transform="matrix(1 8.74228e-08 8.74228e-08 -1 25 25)" fill="#0C1117" fill-opacity="0.4"/>
<path d="M32.5993 10.1362C32.8562 10.367 33 10.6769 33 10.9995C33 11.3221 32.8562 11.632 32.5993 11.8628L18.2482 24.7832L32.5993 37.7011C32.8562 37.9319 33 38.2417 33 38.5643C33 38.887 32.8562 39.1968 32.5993 39.4276C32.4745 39.5401 32.3252 39.6296 32.1603 39.6907C31.9954 39.7517 31.8182 39.7832 31.6392 39.7832C31.4603 39.7832 31.2831 39.7517 31.1182 39.6907C30.9533 39.6296 30.804 39.5401 30.6792 39.4276L15.4181 25.6852C15.15 25.4439 15 25.1202 15 24.7832C15 24.4462 15.15 24.1225 15.4181 23.8812L30.6792 10.1388C30.804 10.0263 30.9533 9.93683 31.1182 9.87575C31.2831 9.81467 31.4603 9.7832 31.6392 9.7832C31.8182 9.7832 31.9954 9.81467 32.1603 9.87575C32.3252 9.93683 32.4745 10.0263 32.5993 10.1388L32.5993 10.1362Z" fill="white"/>
</svg>
