<svg width="287" height="291" viewBox="0 0 287 291" fill="none" xmlns="http://www.w3.org/2000/svg">
<path fill-rule="evenodd" clip-rule="evenodd" d="M22.3092 97.9398C18.7655 106.753 16.1627 116.042 14.6241 125.683C3.78943 155.48 6.46558 190.483 21.0431 220.545C7.71127 198.796 0 173.343 0 146.247C0 79.4803 45.9195 23.4006 108.004 7.65829L84.2168 30.4052C64.4387 40.4692 47.5822 55.4114 35.2411 73.635C22.1193 84.1363 11.9027 97.5112 9 115.25C12.8942 109.128 17.2825 103.137 22.3092 97.9398ZM124.072 17.6804C130.41 16.7382 136.897 16.25 143.5 16.25C215.616 16.25 274 74.4948 274 146.247C274 216.676 219.126 274.633 149.514 277.164C158.379 280.304 168.221 282.818 179.11 284.5C166.354 287.805 154.229 289.657 142.763 290.236C143.429 290.245 144.097 290.25 144.765 290.25C224.018 290.25 287 225.223 287 146.247C287 67.2721 222.753 3.25 143.5 3.25C136.983 3.25 130.567 3.68296 124.28 4.52158C124.202 8.44457 124.121 13.1137 124.072 17.6804Z" fill="url(#paint0_radial_1781_228)"/>
<mask id="mask0_1781_228" style="mask-type:alpha" maskUnits="userSpaceOnUse" x="63" y="50" width="224" height="231">
<ellipse cx="175" cy="165.25" rx="112" ry="115" fill="url(#paint1_radial_1781_228)"/>
<ellipse cx="175" cy="165.25" rx="112" ry="115" fill="url(#paint2_linear_1781_228)"/>
</mask>
<g mask="url(#mask0_1781_228)">
<g filter="url(#filter0_d_1781_228)">
<path fill-rule="evenodd" clip-rule="evenodd" d="M271 213.597C253.375 221.322 237.786 226.171 224.08 228.689H242.722C242.722 228.689 226.4 233.035 215.766 232.637C203.944 232.193 191.176 231.138 179.993 227.942C116.456 209.786 134.956 112.343 182.699 121.442C183.075 121.52 183.455 121.601 183.84 121.682L183.845 121.683C184.123 121.741 184.4 121.8 184.676 121.859C193.071 123.64 200.875 125.296 219.25 120.25C220.339 119.951 223 113.75 223 113.75L118.871 99.25L23.0193 120.604C-12.3759 180.066 121.082 292.324 209.342 273.054C235.5 260.083 257.022 239.206 271 213.597Z" fill="url(#paint3_radial_1781_228)"/>
<path fill-rule="evenodd" clip-rule="evenodd" d="M271 213.597C253.375 221.322 237.786 226.171 224.08 228.689H242.722C242.722 228.689 226.4 233.035 215.766 232.637C203.944 232.193 191.176 231.138 179.993 227.942C116.456 209.786 134.956 112.343 182.699 121.442C183.075 121.52 183.455 121.601 183.84 121.682L183.845 121.683C184.123 121.741 184.4 121.8 184.676 121.859C193.071 123.64 200.875 125.296 219.25 120.25C220.339 119.951 223 113.75 223 113.75L118.871 99.25L23.0193 120.604C-12.3759 180.066 121.082 292.324 209.342 273.054C235.5 260.083 257.022 239.206 271 213.597Z" fill="url(#paint4_linear_1781_228)"/>
</g>
</g>
<path fill-rule="evenodd" clip-rule="evenodd" d="M245.999 246.722C245.625 246.8 245.245 246.88 244.858 246.961C214.166 253.368 144.286 267.957 114.98 204.358C110.575 184.19 118.327 159.924 118.327 159.924L110.623 174.986C112.05 157.918 121.182 141.348 142.173 127.71C154.777 119.52 168.548 119.664 183.387 122.066C192.68 123.57 215.469 124.272 221.999 115.75C223.39 113.935 222.999 111.5 222.999 111.5L118.325 96.75L31.034 117.805C6.06539 160.126 45.9744 243.221 103.429 283.177C116.493 287.127 130.351 289.25 144.707 289.25C184.422 288.871 220.247 272.708 245.999 246.722Z" fill="url(#paint5_radial_1781_228)"/>
<path fill-rule="evenodd" clip-rule="evenodd" d="M245.999 246.722C245.625 246.8 245.245 246.88 244.858 246.961C214.166 253.368 144.286 267.957 114.98 204.358C110.575 184.19 118.327 159.924 118.327 159.924L110.623 174.986C112.05 157.918 121.182 141.348 142.173 127.71C154.777 119.52 168.548 119.664 183.387 122.066C192.68 123.57 215.469 124.272 221.999 115.75C223.39 113.935 222.999 111.5 222.999 111.5L118.325 96.75L31.034 117.805C6.06539 160.126 45.9744 243.221 103.429 283.177C116.493 287.127 130.351 289.25 144.707 289.25C184.422 288.871 220.247 272.708 245.999 246.722Z" fill="url(#paint6_linear_1781_228)"/>
<path fill-rule="evenodd" clip-rule="evenodd" d="M224.728 110.297C224.728 110.297 225.658 114.046 224.728 116.124C219.665 127.436 187.916 123.225 179.11 121.372L179.107 121.371C177.415 121.015 175.673 120.648 173.868 120.285L160.528 119.037H134.681C134.681 119.037 145.103 119.037 150.522 116.124C155.942 113.211 150.522 112.794 150.522 112.794C135.814 109.971 126.477 108.373 112.169 112.794C89.712 119.733 60.5358 149.869 58.8074 173.969C64.2382 165.326 70.7472 156.897 79.2348 151.081C79.2348 151.081 69.0858 168.851 66.7283 181.46C63.408 199.217 64.8826 225.315 76.3166 240.137C79.6184 244.418 84.6543 249.709 84.6543 249.709C80.0686 235.56 80.0686 226.404 82.153 213.087C89.5279 238.729 117.61 274.75 179.11 284.25C41.1452 320 -23.0504 185.771 22.5383 108.633C30.0257 95.9638 49.2191 81.999 49.2191 81.999C31.3214 85.4763 18.8429 97.6318 9.19798 112.794C19.9136 90.7322 35.5778 70.4879 58.8074 58.4114C71.1699 51.9844 72 47.4582 72 47.4582L121.174 0C121.174 0 119.852 36.3334 120.923 37.8867C123.201 41.1904 130.432 43.0091 139.144 45.2002C149.849 47.8927 162.791 51.1476 171.527 58.4114C180.131 65.5655 185.554 70.0741 190.126 80.3344C192.199 84.9851 193.878 92.819 193.878 92.819L215.556 105.72L224.728 110.297ZM168.203 81.999C171.332 81.999 173.868 84.5354 173.868 87.6641V87.8251L156.776 83.6636C160.089 82.5611 163.558 81.999 167.05 81.999H168.203ZM101.25 32.75C104.452 28.401 117 13.25 117 13.25C116.5 17.1289 116.6 37.9593 117 38.25C117.218 38.4082 118.383 39.6134 119.651 40.9239L119.651 40.9239L119.651 40.9244C121.174 42.4992 122.844 44.226 123.193 44.4706C122.935 44.4015 122.048 44.221 121.174 44.0432C120.648 43.9362 120.127 43.8302 119.75 43.75C118.577 43.5 112 42.75 111.25 42.75C110.5 42.75 106.5 43.75 106.5 44C106.5 44.2 107.167 46.3888 107.5 47.4582L102.56 44.4202C101.119 43.5343 100.218 41.9815 100.243 40.2905C100.282 37.6225 100.478 33.7991 101.25 32.75ZM134.5 38.0832C134.5 38.0832 140.02 33.0742 143.3 30.4165C146.468 27.85 151.034 24.7499 151.034 24.7499C150.956 25.2832 153.668 35.4165 155.034 40.4165L158.5 44.7499L152.634 43.4165L152.1 42.4165L154.5 42.7499C154.296 42.2749 154.024 42.1844 153.732 42.0872C153.137 41.8889 152.458 41.6629 152.1 38.0832C152.085 37.9307 152.014 37.5205 151.912 36.9328C151.681 35.5911 151.289 33.3239 151.034 31.0832C149.999 32.31 148.843 33.4 147.788 34.395C144.256 37.7256 141.855 39.9905 148.9 42.7499C144.389 40.9829 134.5 38.0832 134.5 38.0832Z" fill="url(#paint7_radial_1781_228)"/>
<path fill-rule="evenodd" clip-rule="evenodd" d="M224.728 110.297C224.728 110.297 225.658 114.046 224.728 116.124C219.665 127.436 187.916 123.225 179.11 121.372L179.107 121.371C177.415 121.015 175.673 120.648 173.868 120.285L160.528 119.037H134.681C134.681 119.037 145.103 119.037 150.522 116.124C155.942 113.211 150.522 112.794 150.522 112.794C135.814 109.971 126.477 108.373 112.169 112.794C89.712 119.733 60.5358 149.869 58.8074 173.969C64.2382 165.326 70.7472 156.897 79.2348 151.081C79.2348 151.081 69.0858 168.851 66.7283 181.46C63.408 199.217 64.8826 225.315 76.3166 240.137C79.6184 244.418 84.6543 249.709 84.6543 249.709C80.0686 235.56 80.0686 226.404 82.153 213.087C89.5279 238.729 117.61 274.75 179.11 284.25C41.1452 320 -23.0504 185.771 22.5383 108.633C30.0257 95.9638 49.2191 81.999 49.2191 81.999C31.3214 85.4763 18.8429 97.6318 9.19798 112.794C19.9136 90.7322 35.5778 70.4879 58.8074 58.4114C71.1699 51.9844 72 47.4582 72 47.4582L121.174 0C121.174 0 119.852 36.3334 120.923 37.8867C123.201 41.1904 130.432 43.0091 139.144 45.2002C149.849 47.8927 162.791 51.1476 171.527 58.4114C180.131 65.5655 185.554 70.0741 190.126 80.3344C192.199 84.9851 193.878 92.819 193.878 92.819L215.556 105.72L224.728 110.297ZM168.203 81.999C171.332 81.999 173.868 84.5354 173.868 87.6641V87.8251L156.776 83.6636C160.089 82.5611 163.558 81.999 167.05 81.999H168.203ZM101.25 32.75C104.452 28.401 117 13.25 117 13.25C116.5 17.1289 116.6 37.9593 117 38.25C117.218 38.4082 118.383 39.6134 119.651 40.9239L119.651 40.9239L119.651 40.9244C121.174 42.4992 122.844 44.226 123.193 44.4706C122.935 44.4015 122.048 44.221 121.174 44.0432C120.648 43.9362 120.127 43.8302 119.75 43.75C118.577 43.5 112 42.75 111.25 42.75C110.5 42.75 106.5 43.75 106.5 44C106.5 44.2 107.167 46.3888 107.5 47.4582L102.56 44.4202C101.119 43.5343 100.218 41.9815 100.243 40.2905C100.282 37.6225 100.478 33.7991 101.25 32.75ZM134.5 38.0832C134.5 38.0832 140.02 33.0742 143.3 30.4165C146.468 27.85 151.034 24.7499 151.034 24.7499C150.956 25.2832 153.668 35.4165 155.034 40.4165L158.5 44.7499L152.634 43.4165L152.1 42.4165L154.5 42.7499C154.296 42.2749 154.024 42.1844 153.732 42.0872C153.137 41.8889 152.458 41.6629 152.1 38.0832C152.085 37.9307 152.014 37.5205 151.912 36.9328C151.681 35.5911 151.289 33.3239 151.034 31.0832C149.999 32.31 148.843 33.4 147.788 34.395C144.256 37.7256 141.855 39.9905 148.9 42.7499C144.389 40.9829 134.5 38.0832 134.5 38.0832Z" fill="url(#paint8_linear_1781_228)"/>
<defs>
<filter id="filter0_d_1781_228" x="-22.8203" y="41.25" width="369.82" height="292" filterUnits="userSpaceOnUse" color-interpolation-filters="sRGB">
<feFlood flood-opacity="0" result="BackgroundImageFix"/>
<feColorMatrix in="SourceAlpha" type="matrix" values="0 0 0 0 0 0 0 0 0 0 0 0 0 0 0 0 0 0 127 0" result="hardAlpha"/>
<feOffset dx="18"/>
<feGaussianBlur stdDeviation="29"/>
<feComposite in2="hardAlpha" operator="out"/>
<feColorMatrix type="matrix" values="0 0 0 0 0 0 0 0 0 0 0 0 0 0 0 0 0 0 0.25 0"/>
<feBlend mode="normal" in2="BackgroundImageFix" result="effect1_dropShadow_1781_228"/>
<feBlend mode="normal" in="SourceGraphic" in2="effect1_dropShadow_1781_228" result="shape"/>
</filter>
<radialGradient id="paint0_radial_1781_228" cx="0" cy="0" r="1" gradientUnits="userSpaceOnUse" gradientTransform="translate(259 151.25) rotate(170.005) scale(247.76)">
<stop stop-color="#2A3037"/>
<stop offset="1" stop-color="#282E34"/>
</radialGradient>
<radialGradient id="paint1_radial_1781_228" cx="0" cy="0" r="1" gradientUnits="userSpaceOnUse" gradientTransform="translate(257 84.7099) rotate(125.716) scale(236.395 179.781)">
<stop stop-color="#8898A7"/>
<stop offset="1" stop-color="#21262B"/>
</radialGradient>
<linearGradient id="paint2_linear_1781_228" x1="383.4" y1="64.2744" x2="189.557" y2="209.403" gradientUnits="userSpaceOnUse">
<stop stop-color="#341E32"/>
<stop offset="1" stop-opacity="0"/>
</linearGradient>
<radialGradient id="paint3_radial_1781_228" cx="0" cy="0" r="1" gradientUnits="userSpaceOnUse" gradientTransform="translate(237.006 125.619) rotate(136.794) scale(214.53 171.774)">
<stop stop-color="#566675"/>
<stop offset="1" stop-color="#21262B"/>
</radialGradient>
<linearGradient id="paint4_linear_1781_228" x1="380.233" y1="109.982" x2="226.465" y2="280.459" gradientUnits="userSpaceOnUse">
<stop stop-color="#341E32"/>
<stop offset="1" stop-opacity="0"/>
</linearGradient>
<radialGradient id="paint5_radial_1781_228" cx="0" cy="0" r="1" gradientUnits="userSpaceOnUse" gradientTransform="translate(216.194 125.592) rotate(130.481) scale(211.196 167.333)">
<stop stop-color="#6B7B8A"/>
<stop offset="1" stop-color="#21262B"/>
</radialGradient>
<linearGradient id="paint6_linear_1781_228" x1="341.776" y1="108.488" x2="173.864" y2="257.721" gradientUnits="userSpaceOnUse">
<stop stop-color="#341E32"/>
<stop offset="1" stop-opacity="0"/>
</linearGradient>
<radialGradient id="paint7_radial_1781_228" cx="0" cy="0" r="1" gradientUnits="userSpaceOnUse" gradientTransform="translate(196.06 43.4773) rotate(118.917) scale(276.652 187.884)">
<stop stop-color="#8898A7"/>
<stop offset="1" stop-color="#21262B"/>
</radialGradient>
<linearGradient id="paint8_linear_1781_228" x1="318.59" y1="17.6942" x2="98.26" y2="144.437" gradientUnits="userSpaceOnUse">
<stop stop-color="#341E32"/>
<stop offset="1" stop-opacity="0"/>
</linearGradient>
</defs>
</svg>
