<svg width="48" height="49" viewBox="0 0 48 49" fill="none" xmlns="http://www.w3.org/2000/svg">
<g clip-path="url(#clip0_1867_722)">
<rect y="0.163086" width="47.9138" height="47.9138" rx="23.9569" fill="url(#paint0_linear_1867_722)"/>
<rect y="0.163086" width="47.9138" height="47.9138" rx="23.9569" fill="url(#paint1_radial_1867_722)" fill-opacity="0.8" style="mix-blend-mode:screen"/>
<path d="M12.9555 13.1719C12.9555 10.2167 15.3899 7.81836 18.3893 7.81836H23.8231V18.5254H18.3893C15.3899 18.5254 12.9555 16.127 12.9555 13.1719Z" fill="#E15A33"/>
<path d="M34.6907 13.1719C34.6907 10.2167 32.2564 7.81836 29.2569 7.81836H23.8231V18.5254H29.2569C32.2564 18.5254 34.6907 16.127 34.6907 13.1719Z" fill="#EE7A69"/>
<path d="M12.9555 23.8789C12.9555 20.9238 15.3899 18.5254 18.3893 18.5254H23.8231V29.2324H18.3893C15.3899 29.2324 12.9555 26.834 12.9555 23.8789Z" fill="#9763F6"/>
<ellipse cx="29.1766" cy="23.8789" rx="5.3535" ry="5.3535" fill="#55BBF8"/>
<path d="M18.3893 29.2324H23.8231V34.5859C23.8231 37.541 21.3888 39.9394 18.3893 39.9394C15.3899 39.9394 12.9555 37.541 12.9555 34.5859C12.9555 31.6308 15.3899 29.2324 18.3893 29.2324Z" fill="#5ECB89"/>
<g style="mix-blend-mode:overlay">
<g filter="url(#filter0_d_1867_722)">
<path fill-rule="evenodd" clip-rule="evenodd" d="M12.9555 13.1719C12.9555 10.2167 15.3898 7.81836 18.3893 7.81836H23.8231H29.2569C32.2564 7.81836 34.6907 10.2167 34.6907 13.1719C34.6907 16.127 32.2564 18.5254 29.2569 18.5254L23.8231 18.5254H18.3893C15.3898 18.5254 12.9555 16.127 12.9555 13.1719ZM18.3893 18.5254C15.3898 18.5254 12.9555 20.9238 12.9555 23.8789C12.9555 26.834 15.3898 29.2324 18.3893 29.2324H23.8231V23.8853C23.8266 26.839 26.2221 29.2324 29.1766 29.2324C32.1333 29.2324 34.5301 26.8355 34.5301 23.8789C34.5301 20.9222 32.1333 18.5254 29.1766 18.5254C26.2221 18.5254 23.8266 20.9187 23.8231 23.8724V18.5254H18.3893ZM23.8231 29.2324H18.3893C15.3899 29.2324 12.9555 31.6308 12.9555 34.5859C12.9555 37.541 15.3899 39.9394 18.3893 39.9394C21.3888 39.9394 23.8231 37.541 23.8231 34.5859V29.2324Z" fill="url(#paint2_linear_1867_722)" style="mix-blend-mode:overlay"/>
</g>
<path d="M13.5086 13.1719C13.5086 10.5299 15.6875 8.37141 18.3893 8.37141H23.2701V17.9723H18.3893C15.6875 17.9723 13.5086 15.8138 13.5086 13.1719Z" fill="#3C100D" fill-opacity="0.65" stroke="url(#paint3_linear_1867_722)" stroke-width="1.1061"/>
<path d="M34.1377 13.1719C34.1377 10.5299 31.9587 8.37141 29.2569 8.37141H24.3762V17.9723H29.2569C31.9587 17.9723 34.1377 15.8138 34.1377 13.1719Z" fill="#A35651" fill-opacity="0.45" stroke="url(#paint4_linear_1867_722)" stroke-width="1.1061"/>
<path d="M13.5086 23.8789C13.5086 21.2369 15.6875 19.0784 18.3893 19.0784H23.2701V28.6793H18.3893C15.6875 28.6793 13.5086 26.5208 13.5086 23.8789Z" fill="#6B35CF" fill-opacity="0.31" stroke="url(#paint5_linear_1867_722)" stroke-width="1.1061"/>
<path d="M33.9771 23.8789C33.9771 26.5301 31.8278 28.6793 29.1766 28.6793C26.5254 28.6793 24.3762 26.5301 24.3762 23.8789C24.3762 21.2277 26.5254 19.0784 29.1766 19.0784C31.8278 19.0784 33.9771 21.2277 33.9771 23.8789Z" fill="#00A0FF" fill-opacity="0.3" stroke="url(#paint6_linear_1867_722)" stroke-width="1.1061"/>
<path d="M18.3893 29.7855H23.2701V34.5859C23.2701 37.2279 21.0911 39.3864 18.3893 39.3864C15.6875 39.3864 13.5086 37.2279 13.5086 34.5859C13.5086 31.944 15.6875 29.7855 18.3893 29.7855Z" fill="#00FF65" fill-opacity="0.3" stroke="url(#paint7_linear_1867_722)" stroke-width="1.1061"/>
<path fill-rule="evenodd" clip-rule="evenodd" d="M34.6907 13.1719C34.6907 10.2167 32.2564 7.81836 29.2569 7.81836H23.8231V7.81845H18.3893C15.3899 7.81845 12.9555 10.2168 12.9555 13.1719C12.9555 16.1208 15.3795 18.5152 18.3701 18.5254C15.3795 18.5356 12.9555 20.9301 12.9555 23.8789C12.9555 26.834 15.3899 29.2324 18.3893 29.2324H23.8231V23.8868C23.8274 26.8398 26.2226 29.2324 29.1766 29.2324C32.1333 29.2324 34.5301 26.8355 34.5301 23.8789C34.5301 20.9222 32.1333 18.5254 29.1766 18.5254C26.2226 18.5254 23.8274 20.918 23.8231 23.871V18.5255H23.8231V18.5254H29.2569C32.2564 18.5254 34.6907 16.127 34.6907 13.1719ZM23.8231 29.2324H18.3893C15.3899 29.2324 12.9555 31.6308 12.9555 34.5859C12.9555 37.541 15.3899 39.9394 18.3893 39.9394C21.3888 39.9394 23.8231 37.541 23.8231 34.5859V29.2324Z" fill="url(#paint8_linear_1867_722)" style="mix-blend-mode:overlay"/>
</g>
</g>
<defs>
<filter id="filter0_d_1867_722" x="-5.99074" y="7.81836" width="59.6277" height="70.0136" filterUnits="userSpaceOnUse" color-interpolation-filters="sRGB">
<feFlood flood-opacity="0" result="BackgroundImageFix"/>
<feColorMatrix in="SourceAlpha" type="matrix" values="0 0 0 0 0 0 0 0 0 0 0 0 0 0 0 0 0 0 127 0" result="hardAlpha"/>
<feOffset dy="18.9462"/>
<feGaussianBlur stdDeviation="9.47312"/>
<feColorMatrix type="matrix" values="0 0 0 0 0 0 0 0 0 0 0 0 0 0 0 0 0 0 0.2 0"/>
<feBlend mode="normal" in2="BackgroundImageFix" result="effect1_dropShadow_1867_722"/>
<feBlend mode="normal" in="SourceGraphic" in2="effect1_dropShadow_1867_722" result="shape"/>
</filter>
<linearGradient id="paint0_linear_1867_722" x1="23.9569" y1="0.163086" x2="23.9569" y2="48.0769" gradientUnits="userSpaceOnUse">
<stop stop-color="#2B2B2B"/>
<stop offset="1" stop-color="#171616"/>
</linearGradient>
<radialGradient id="paint1_radial_1867_722" cx="0" cy="0" r="1" gradientUnits="userSpaceOnUse" gradientTransform="translate(23.9569 0.163086) rotate(90) scale(21.693 28.247)">
<stop stop-color="#292929"/>
<stop offset="1" stop-color="#2B2B2B" stop-opacity="0"/>
</radialGradient>
<linearGradient id="paint2_linear_1867_722" x1="13.0001" y1="8.29328" x2="37.6779" y2="29.7859" gradientUnits="userSpaceOnUse">
<stop offset="0.00520833" stop-color="white"/>
<stop offset="1" stop-color="#1A1919"/>
</linearGradient>
<linearGradient id="paint3_linear_1867_722" x1="12.9753" y1="7.85365" x2="23.6601" y2="18.6861" gradientUnits="userSpaceOnUse">
<stop stop-color="#FF8776"/>
<stop offset="0.173928" stop-color="#D95B48"/>
<stop offset="0.354254" stop-color="#E04C36"/>
<stop offset="0.756984" stop-color="#27110E"/>
<stop offset="1" stop-color="#380F08"/>
</linearGradient>
<linearGradient id="paint4_linear_1867_722" x1="28.2571" y1="7.85365" x2="28.4284" y2="18.4612" gradientUnits="userSpaceOnUse">
<stop stop-color="#FFA3A3"/>
<stop offset="0.169753" stop-color="#EC8E88"/>
<stop offset="0.33973" stop-color="#DA7A74"/>
<stop offset="0.715204" stop-color="#9D5247"/>
<stop offset="1" stop-color="#6D301F"/>
<stop offset="1" stop-color="#6D1F1F"/>
</linearGradient>
<linearGradient id="paint5_linear_1867_722" x1="14.3883" y1="18.6997" x2="19.8785" y2="29.393" gradientUnits="userSpaceOnUse">
<stop stop-color="#D9C4FF"/>
<stop offset="0.302397" stop-color="#9763F6"/>
<stop offset="0.542065" stop-color="#7A3CEB"/>
<stop offset="0.769478" stop-color="#572BA7"/>
<stop offset="1" stop-color="#301660"/>
</linearGradient>
<linearGradient id="paint6_linear_1867_722" x1="24.2795" y1="18.6998" x2="31.7446" y2="29.0744" gradientUnits="userSpaceOnUse">
<stop stop-color="#ABE0FF"/>
<stop offset="0.239209" stop-color="#55BBF8"/>
<stop offset="0.434014" stop-color="#3FABEC"/>
<stop offset="0.731" stop-color="#1B6EA0"/>
<stop offset="1" stop-color="#2B668A"/>
</linearGradient>
<linearGradient id="paint7_linear_1867_722" x1="13.6817" y1="29.7816" x2="23.0109" y2="35.8163" gradientUnits="userSpaceOnUse">
<stop stop-color="#B6FFD3"/>
<stop offset="0.239209" stop-color="#7AFCAD"/>
<stop offset="0.472166" stop-color="#5ECB89"/>
<stop offset="0.731" stop-color="#38935C"/>
<stop offset="1" stop-color="#267344"/>
</linearGradient>
<linearGradient id="paint8_linear_1867_722" x1="13.0001" y1="8.29328" x2="37.6779" y2="29.7859" gradientUnits="userSpaceOnUse">
<stop offset="0.00520833" stop-color="white"/>
<stop offset="1" stop-color="#1A1919"/>
</linearGradient>
<clipPath id="clip0_1867_722">
<rect width="48" height="48" fill="white" transform="translate(0 0.163086)"/>
</clipPath>
</defs>
</svg>
